<svg width="500" height="500" viewBox="0 0 500 500" fill="none" xmlns="http://www.w3.org/2000/svg">
<g clip-path="url(#clip0_79_2)">
<rect width="500" height="500" fill="#FD9F21"/>
<path d="M174.79 176.992C176.143 175.757 177.505 174.639 178.833 173.691C181.372 171.88 184.195 170.254 187.139 168.877C182.715 170.996 178.521 173.745 174.79 176.992Z" fill="#FC7625"/>
<path fill-rule="evenodd" clip-rule="evenodd" d="M201.172 163.33C200.034 162.3 196.416 163.091 196.045 164.063C195.698 164.961 196.348 166.44 192.139 165.527C191.533 165.396 189.209 167.661 189.209 167.236C189.209 166.255 186.987 169.238 185.547 168.877C184.956 168.731 183.862 170.073 182.373 170.166C180.122 170.308 178.711 173.511 178.711 172.852C178.711 171.885 176.514 174.316 175.781 175.049C175.405 175.425 175.049 176.514 174.317 177.246C173.809 176.699 173.237 178.828 172.363 178.467C170.85 177.842 172.725 178.911 171.631 180.176C170.234 181.807 170.654 180.664 169.678 181.636C169.434 182.373 169.19 182.617 168.701 183.106C168.213 183.838 166.992 185.547 166.748 185.791C166.504 186.035 165.283 187.744 165.283 187.744C165.283 187.744 164.297 189.741 164.419 189.312C164.05 189.896 163.705 190.475 163.383 191.046C163.536 190.755 163.418 190.419 163.373 190.267C163.296 190.413 163.022 190.734 162.842 191.079C162.603 191.548 161.987 192.036 162.109 192.383C162.236 192.734 161.924 193.442 161.226 194.092C160.698 194.58 161.416 195.43 161.226 195.518C160.918 196.231 160.659 196.836 160.435 197.402C160.498 197.427 160.078 197.705 160.156 197.754C160.425 197.92 159.912 198.018 159.912 198.242C159.912 198.467 160.098 198.565 159.668 198.731C159.461 198.814 159.754 198.924 159.869 198.961C159.885 198.957 159.899 198.961 159.912 198.975C159.912 198.975 159.895 198.97 159.869 198.961C159.601 199.034 159.023 201.647 158.496 203.613C153.145 223.638 158.198 244.19 173.408 264.268C177.066 269.102 188.545 280.654 197.998 289.028C221.616 309.941 234.981 326.367 244.707 346.436C246.27 349.658 247.92 352.568 248.379 352.905C249.57 353.779 251.68 353.657 252.539 352.661C252.945 352.192 254.644 349.028 256.309 345.63C266.24 325.366 276.558 312.666 302.246 289.067C313.921 278.34 323.355 268.843 326.734 264.404C335.488 252.915 340.991 240.82 343.028 228.604C344.234 221.387 343.843 210.991 342.124 204.453C338.989 192.529 331.572 181.504 321.778 174.214C306.558 162.891 286.026 160.962 269.356 169.292C262.984 172.476 259.028 175.733 251.987 183.594L250.64 185.059C250.64 185.059 250.546 185.046 250.488 185.059C250.28 185.105 250.244 185.547 250.244 185.547H250L249.268 184.57C249.268 184.57 248.062 183.057 248.047 182.617C248.037 182.178 247.1 180.322 246.582 179.688C245.659 178.555 242.647 174.937 241.211 175.781C240.405 176.25 240.068 173.413 238.77 173.584C237.061 172.607 237.793 172.363 236.817 171.387C235.84 170.41 235.147 169.844 233.154 170.166C231.934 169.678 227.539 166.016 227.295 166.504C227.152 166.447 227.018 166.738 226.891 167.296C227.697 167.623 228.494 167.971 229.282 168.34C228.491 167.974 227.691 167.627 226.89 167.301C224.854 165.283 222.682 164.063 221.924 164.063C220.376 164.063 222.168 163.33 218.994 163.574C218.862 162.124 218.237 163.457 215.576 163.574C213.027 163.691 213.12 163.711 209.961 163.574C208.555 163.516 205.313 161.279 205.078 163.574C203.613 163.33 203.125 163.574 201.172 163.33Z" fill="#FC7625"/>
<path d="M0 250V0H250H500V250V500H250H0V250ZM241.5 407C242.989 405.232 242.477 404.229 241.5 399C236.778 373.697 225.005 350.708 207.593 328.857C201.67 321.426 188.516 308.286 180.884 302.178C155.85 282.134 127.495 268.223 90.4004 257.788C80.1074 254.893 78.623 254.795 76.5479 256.875C76.5479 256.875 76.984 256.316 76.5479 256.947C74.886 259.353 75.3613 265.786 75.3613 265.786C75.6299 272.09 76.3086 277.51 77.915 286.133C78.4814 289.155 81.4502 299.438 82.9199 303.467C90.1318 323.223 101.03 339.946 116.514 354.99C122.109 360.425 130.708 367.676 131.562 367.676C131.733 367.676 133.022 368.511 134.419 369.526C143.711 376.294 156.646 383.052 169.565 387.886C178.95 391.396 188.838 394.092 208.989 398.628C219.565 401.006 229.812 405.032 234.5 407C238.157 408.533 240.016 408.768 241.5 407ZM270.5 405C278.459 402.251 283 401 297.607 397.246C323.799 391.245 334.468 387.666 349.854 379.707C366.45 371.118 382.388 358.32 393.984 344.268C412.676 321.616 423.652 293.54 424.663 265.776C424.663 265.776 424.826 261 424.663 259.5C424.5 258 423.442 256.865 423.442 256.865C421.543 254.966 420.488 254.961 412.92 256.855C391.514 262.207 366.035 272.354 347.412 282.939C313.584 302.168 287.417 329.521 272.192 361.572C268.643 369.048 266.387 375.425 266 377C265.887 377.425 265.5 378.5 265.5 379C265 379.5 262.28 388.193 261.704 391.772C261.479 393.154 260.42 396.451 260 399C259.441 402.39 259 402 259 404.5C259 407 262.097 407.273 263 407C263.454 406.858 267.009 406.206 270.5 405ZM252.539 352.661C252.944 352.192 254.644 349.028 256.309 345.63C266.24 325.366 276.558 312.666 302.246 289.067C313.921 278.34 323.354 268.843 326.733 264.404C335.488 252.915 340.991 240.82 343.027 228.604C344.233 221.387 343.843 210.991 342.124 204.453C338.989 192.529 331.572 181.504 321.777 174.214C306.558 162.891 286.025 160.962 269.355 169.292C262.983 172.476 259.028 175.732 251.987 183.594L250.02 185.791L248.687 184.082C241.675 175.083 232.627 168.765 222.412 165.723C217.109 164.146 207.456 163.604 201.138 164.526C193.716 165.61 185.337 169.053 178.833 173.691C172.354 178.311 165.049 186.992 162.08 193.604C160.01 198.208 159.736 198.984 158.496 203.613C153.145 223.638 158.198 244.189 173.408 264.268C177.065 269.102 188.545 280.654 197.998 289.028C221.616 309.941 234.98 326.367 244.707 346.436C246.27 349.658 247.92 352.568 248.379 352.905C249.57 353.779 251.68 353.657 252.539 352.661ZM247.515 284.771C246.221 283.613 245.884 282.817 245.317 279.551C242.222 261.753 234.746 253.486 218.774 250.205C212.222 248.853 211.626 248.643 210.288 247.163C208.691 245.4 209.307 241.855 211.401 240.737C211.914 240.464 214.688 239.785 217.568 239.229C229.741 236.88 236.943 231.919 241.284 222.9C243.013 219.316 245.283 210.51 245.605 208.252C245.85 206.543 247.095 204.248 248.862 203.579C250.63 202.91 252.505 203.413 253.55 204.844C254.028 205.493 254.946 208.608 255.596 211.777C257.969 223.354 262.09 229.995 269.775 234.609C272.969 236.528 280.083 238.901 285.259 239.775C289.429 240.479 291.016 241.797 291.016 244.561C291.016 246.113 290.723 246.738 289.536 247.739C288.721 248.423 287.241 249.126 286.24 249.297C275.151 251.211 269.214 253.711 264.482 258.457C259.873 263.081 257.104 268.94 255.591 277.29C254.482 283.394 254.019 284.585 252.427 285.41C250.395 286.46 249.233 286.309 247.515 284.771Z" fill="#FEF8F2"/>
<path d="M250 135C245.582 135 242 131.526 242 127.241V82.7586C242 78.4737 245.582 75 250 75C254.418 75 258 78.4737 258 82.7586V127.241C258 131.526 254.418 135 250 135Z" fill="#FD9F21"/>
<path d="M172.968 149.738C169.349 152.272 164.422 151.481 161.964 147.971L136.45 111.533C133.992 108.023 134.934 103.123 138.553 100.589C142.172 98.0544 147.099 98.8455 149.557 102.356L175.071 138.794C177.529 142.304 176.587 147.204 172.968 149.738Z" fill="#FD9F21"/>
<path d="M129.118 200.039C127.607 204.191 123.117 206.368 119.091 204.903L77.2907 189.689C73.2642 188.223 71.225 183.669 72.7362 179.517C74.2473 175.366 78.7365 173.188 82.763 174.654L124.563 189.868C128.59 191.333 130.629 195.887 129.118 200.039Z" fill="#FD9F21"/>
<path d="M361.968 100.589C358.349 98.0544 353.422 98.8455 350.964 102.356L325.45 138.794C322.992 142.304 323.934 147.204 327.553 149.738C331.172 152.272 336.099 151.481 338.557 147.971L364.071 111.533C366.529 108.023 365.587 103.123 361.968 100.589Z" fill="#FD9F21"/>
<path d="M423.118 179.518C421.607 175.366 417.117 173.188 413.091 174.654L371.291 189.868C367.264 191.333 365.225 195.887 366.736 200.039C368.247 204.191 372.736 206.368 376.763 204.903L418.563 189.689C422.59 188.223 424.629 183.669 423.118 179.518Z" fill="#FD9F21"/>
</g>
<defs>
<clipPath id="clip0_79_2">
<rect width="500" height="500" fill="white"/>
</clipPath>
</defs>
</svg>
